<?xml version="1.0" standalone="no"?>
<!DOCTYPE svg PUBLIC "-//W3C//DTD SVG 20010904//EN"
 "http://www.w3.org/TR/2001/REC-SVG-20010904/DTD/svg10.dtd">
<svg version="1.0" xmlns="http://www.w3.org/2000/svg"
 width="1957.000000pt" height="1957.000000pt" viewBox="0 0 1957.000000 1957.000000"
 preserveAspectRatio="xMidYMid meet">
<metadata>
Created by potrace 1.14, written by Peter Selinger 2001-2017
</metadata>
<g transform="translate(0.000000,1957.000000) scale(0.100000,-0.100000)"
fill="#000000" stroke="none">
<path d="M14138 17633 c-21 -2 -38 -8 -38 -12 0 -5 -25 -11 -57 -14 -31 -3
-59 -10 -62 -15 -3 -5 -25 -13 -48 -17 -24 -4 -43 -11 -43 -16 0 -5 -9 -9 -20
-9 -11 0 -20 -4 -20 -9 0 -5 -20 -12 -45 -15 -25 -4 -45 -11 -45 -16 0 -5 -13
-11 -30 -15 -16 -4 -30 -10 -30 -15 0 -4 -18 -10 -40 -14 -22 -3 -40 -10 -40
-15 0 -5 -13 -12 -30 -16 -16 -4 -30 -10 -30 -15 0 -4 -16 -11 -35 -14 -19 -4
-35 -11 -35 -16 0 -4 -13 -11 -30 -15 -16 -4 -30 -10 -30 -15 0 -5 -13 -11
-30 -15 -16 -4 -30 -10 -30 -15 0 -5 -13 -11 -30 -15 -16 -4 -30 -10 -30 -15
0 -5 -13 -11 -30 -15 -16 -4 -30 -11 -30 -16 0 -5 -7 -9 -15 -9 -8 0 -15 -4
-15 -9 0 -5 -13 -12 -30 -16 -16 -4 -30 -10 -30 -15 0 -5 -13 -11 -30 -15 -16
-4 -30 -10 -30 -15 0 -5 -13 -11 -29 -15 -16 -3 -32 -13 -35 -21 -3 -8 -12
-14 -21 -14 -8 0 -15 -4 -15 -9 0 -5 -11 -12 -25 -15 -14 -4 -25 -11 -25 -16
0 -6 -7 -10 -15 -10 -9 0 -18 -6 -21 -14 -3 -8 -16 -17 -30 -20 -13 -4 -24
-11 -24 -16 0 -6 -7 -10 -15 -10 -9 0 -18 -6 -21 -14 -3 -8 -16 -17 -30 -20
-13 -4 -24 -11 -24 -16 0 -6 -7 -10 -15 -10 -8 0 -15 -5 -15 -10 0 -6 -8 -14
-17 -17 -10 -4 -31 -19 -46 -35 -16 -15 -34 -28 -40 -28 -7 -1 -23 -14 -37
-30 -13 -17 -28 -30 -33 -30 -6 0 -20 -11 -33 -25 -13 -14 -27 -25 -31 -25 -5
0 -20 -13 -33 -30 -14 -16 -29 -29 -34 -30 -5 0 -19 -11 -32 -25 -13 -14 -28
-25 -33 -25 -6 0 -25 -16 -44 -35 -19 -19 -37 -35 -41 -35 -4 0 -35 -27 -68
-60 -33 -33 -65 -60 -71 -60 -7 -1 -21 -12 -32 -26 -33 -42 -76 -84 -86 -84
-5 0 -26 -18 -48 -40 -21 -22 -43 -40 -48 -40 -5 0 -20 -13 -33 -30 -14 -16
-29 -29 -34 -30 -5 0 -24 -16 -43 -35 -19 -19 -40 -35 -48 -35 -8 0 -15 -4
-15 -9 0 -12 -47 -61 -59 -61 -5 0 -30 -20 -54 -45 -25 -25 -49 -45 -53 -45
-13 0 -234 -232 -234 -245 0 -8 -9 -17 -21 -20 -16 -5 -28 1 -48 23 -15 16
-38 33 -51 37 -13 4 -30 14 -38 21 -7 8 -19 14 -26 14 -7 0 -18 11 -24 25 -6
14 -18 25 -27 25 -8 0 -15 4 -15 9 0 5 -10 13 -22 16 -11 4 -31 18 -43 31 -12
13 -28 24 -34 24 -6 0 -14 6 -17 14 -3 8 -19 18 -35 21 -16 4 -29 11 -29 16 0
5 -11 11 -25 15 -14 3 -25 10 -25 14 0 5 -13 11 -29 15 -16 3 -32 13 -35 21
-3 8 -12 14 -21 14 -8 0 -15 4 -15 9 0 5 -11 12 -25 15 -14 4 -25 11 -25 16 0
6 -6 10 -14 10 -8 0 -16 7 -20 15 -3 8 -12 15 -21 15 -8 0 -15 4 -15 9 0 5
-11 12 -25 15 -14 4 -25 10 -25 15 0 5 -13 12 -29 16 -16 3 -32 13 -35 21 -3
8 -12 14 -21 14 -8 0 -15 4 -15 9 0 5 -13 12 -30 16 -16 4 -30 10 -30 15 0 5
-13 11 -29 15 -16 3 -32 13 -35 21 -3 8 -12 14 -21 14 -8 0 -15 4 -15 9 0 5
-13 12 -30 16 -16 4 -30 10 -30 15 0 5 -13 11 -30 15 -16 4 -30 11 -30 16 0 5
-7 9 -15 9 -8 0 -15 4 -15 9 0 5 -13 12 -30 16 -16 4 -30 10 -30 15 0 5 -13
11 -30 15 -16 4 -30 11 -30 15 0 5 -16 12 -35 16 -19 3 -35 10 -35 14 0 4 -16
11 -35 14 -19 4 -35 11 -35 16 0 4 -15 12 -32 15 -18 4 -35 11 -38 16 -3 4
-18 10 -34 13 -16 3 -32 9 -35 14 -3 5 -23 12 -43 16 -21 4 -38 11 -38 15 0 5
-16 12 -35 15 -19 4 -35 11 -35 15 0 5 -20 12 -45 15 -25 4 -45 11 -45 17 0 5
-11 9 -25 9 -14 0 -25 4 -25 9 0 6 -20 13 -45 17 -25 3 -45 10 -45 15 0 4 -22
11 -50 15 -27 4 -50 10 -50 15 0 4 -25 11 -55 14 -30 4 -55 11 -55 15 0 5 -29
12 -65 15 -36 4 -65 11 -65 15 0 5 -28 11 -62 15 -35 4 -66 11 -69 16 -3 5
-61 12 -130 15 -68 4 -126 11 -129 15 -3 4 -56 11 -118 15 -61 4 -112 10 -112
14 0 4 -79 11 -175 15 -96 4 -175 11 -175 16 0 15 -249 10 -329 -6 -41 -9 -81
-20 -90 -24 -9 -5 -42 -12 -73 -16 -32 -4 -58 -11 -58 -16 0 -4 -22 -11 -50
-15 -27 -4 -50 -10 -50 -14 0 -4 -25 -11 -55 -15 -30 -3 -55 -10 -55 -15 0 -5
-22 -12 -50 -16 -27 -4 -50 -10 -50 -14 0 -4 -20 -11 -45 -14 -25 -4 -45 -11
-45 -15 0 -5 -20 -12 -45 -15 -25 -4 -45 -11 -45 -16 0 -5 -20 -12 -45 -16
-25 -3 -45 -10 -45 -15 0 -5 -7 -9 -15 -9 -8 0 -15 -4 -15 -9 0 -5 -14 -12
-30 -16 -17 -4 -30 -10 -30 -15 0 -5 -20 -12 -45 -16 -25 -3 -45 -10 -45 -14
0 -5 -14 -11 -30 -15 -17 -4 -30 -10 -30 -15 0 -4 -16 -11 -35 -14 -19 -4 -35
-11 -35 -16 0 -4 -13 -11 -30 -15 -17 -4 -30 -11 -30 -16 0 -5 -18 -12 -40
-15 -22 -4 -40 -10 -40 -15 0 -5 -7 -9 -15 -9 -9 0 -18 -6 -21 -14 -3 -8 -19
-18 -35 -21 -16 -4 -29 -11 -29 -16 0 -5 -7 -9 -15 -9 -9 0 -18 -7 -21 -15 -4
-8 -12 -15 -20 -15 -8 0 -14 -4 -14 -9 0 -5 -13 -12 -30 -16 -17 -4 -30 -11
-30 -16 0 -5 -11 -11 -25 -15 -14 -3 -25 -10 -25 -14 0 -5 -13 -11 -29 -15
-16 -3 -32 -13 -35 -21 -3 -8 -12 -14 -21 -14 -8 0 -15 -4 -15 -9 0 -5 -11
-12 -25 -15 -14 -4 -25 -10 -25 -15 0 -5 -13 -12 -29 -16 -16 -3 -32 -13 -35
-21 -3 -8 -12 -14 -21 -14 -8 0 -15 -4 -15 -9 0 -5 -11 -12 -25 -15 -14 -4
-25 -10 -25 -15 0 -5 -13 -12 -30 -16 -16 -3 -32 -15 -35 -25 -3 -10 -19 -22
-35 -25 -17 -4 -30 -10 -30 -15 0 -5 -10 -12 -22 -16 -12 -3 -28 -12 -35 -18
-33 -29 -43 -36 -66 -41 -14 -4 -28 -13 -31 -21 -3 -8 -12 -14 -21 -14 -8 0
-15 -4 -15 -10 0 -5 -11 -12 -25 -16 -14 -3 -25 -10 -25 -15 0 -5 -7 -9 -15
-9 -9 0 -18 -6 -21 -14 -3 -8 -16 -17 -30 -20 -13 -4 -24 -11 -24 -16 0 -6 -7
-10 -15 -10 -9 0 -18 -7 -21 -15 -4 -8 -12 -15 -20 -15 -8 0 -14 -4 -14 -10 0
-5 -11 -12 -24 -16 -14 -3 -27 -12 -30 -20 -3 -8 -12 -14 -21 -14 -8 0 -15 -4
-15 -10 0 -5 -11 -12 -24 -16 -14 -3 -27 -12 -30 -20 -3 -8 -12 -14 -21 -14
-8 0 -15 -4 -15 -10 0 -5 -11 -12 -24 -16 -14 -3 -27 -12 -30 -20 -3 -8 -12
-14 -21 -14 -8 0 -15 -4 -15 -10 0 -5 -11 -12 -24 -16 -14 -3 -27 -12 -30 -20
-3 -8 -12 -14 -20 -14 -8 0 -18 -9 -21 -20 -3 -11 -13 -20 -21 -20 -8 0 -22
-9 -31 -20 -10 -11 -23 -20 -30 -20 -7 0 -13 -4 -13 -10 0 -5 -11 -12 -24 -16
-14 -3 -27 -12 -30 -20 -3 -8 -12 -14 -21 -14 -8 0 -15 -4 -15 -9 0 -5 -10
-13 -22 -16 -11 -4 -31 -18 -43 -31 -12 -13 -28 -24 -34 -24 -6 0 -14 -7 -17
-15 -4 -8 -12 -15 -20 -15 -8 0 -22 -9 -31 -20 -10 -11 -22 -20 -28 -20 -6 0
-19 -11 -29 -25 -10 -14 -23 -25 -29 -25 -5 0 -20 -11 -32 -24 -12 -13 -31
-27 -43 -30 -11 -4 -23 -13 -26 -21 -3 -8 -11 -15 -17 -15 -6 0 -22 -11 -34
-24 -12 -13 -31 -27 -43 -30 -11 -4 -23 -13 -26 -21 -3 -8 -10 -15 -16 -15 -6
0 -21 -11 -34 -25 -13 -14 -28 -25 -33 -25 -6 0 -19 -11 -29 -25 -10 -14 -24
-25 -29 -25 -14 0 -85 -75 -85 -89 0 -16 -30 -61 -56 -87 -12 -11 -25 -30 -28
-42 -4 -11 -13 -23 -21 -26 -8 -3 -15 -15 -15 -26 0 -11 -4 -20 -10 -20 -5 0
-10 -7 -10 -15 0 -9 -7 -18 -15 -21 -8 -4 -15 -12 -15 -20 0 -8 -9 -22 -20
-31 -11 -10 -20 -23 -20 -30 0 -7 -4 -13 -10 -13 -5 0 -12 -11 -16 -24 -3 -14
-12 -27 -20 -30 -8 -3 -14 -17 -14 -31 0 -14 -4 -25 -10 -25 -5 0 -13 -18 -16
-40 -4 -22 -10 -40 -14 -40 -4 0 -11 -16 -14 -35 -4 -19 -11 -35 -16 -35 -5 0
-12 -25 -15 -55 -4 -30 -11 -55 -16 -55 -5 0 -9 -9 -9 -20 0 -11 -18 -74 -40
-140 -22 -66 -40 -129 -40 -140 0 -11 -4 -20 -9 -20 -5 0 -12 -20 -15 -45 -4
-25 -11 -45 -15 -45 -4 0 -13 -28 -19 -62 -5 -35 -18 -92 -27 -128 -9 -36 -20
-84 -25 -108 -5 -24 -12 -47 -15 -52 -10 -16 -73 -302 -90 -405 -9 -55 -51
-239 -95 -410 -43 -170 -89 -357 -100 -415 -43 -208 -95 -535 -122 -755 -6
-49 -14 -92 -18 -95 -4 -3 -11 -49 -15 -102 -4 -54 -10 -98 -15 -98 -4 0 -11
-40 -15 -90 -4 -49 -11 -90 -15 -90 -4 0 -11 -40 -15 -90 -4 -49 -10 -90 -14
-90 -4 0 -13 -67 -21 -150 -7 -82 -16 -150 -20 -150 -4 0 -11 -49 -15 -110 -3
-60 -10 -110 -15 -110 -4 0 -11 -49 -15 -110 -4 -60 -11 -110 -15 -110 -4 0
-11 -54 -15 -120 -4 -66 -11 -120 -15 -120 -4 0 -11 -63 -15 -140 -4 -77 -11
-140 -15 -140 -4 0 -11 -59 -15 -130 -4 -71 -11 -130 -15 -130 -5 0 -11 -58
-15 -130 -4 -71 -11 -130 -15 -130 -4 0 -11 -65 -15 -145 -4 -80 -11 -145 -15
-145 -4 0 -11 -84 -15 -187 -4 -104 -12 -191 -17 -194 -15 -9 -16 -1418 -2
-1427 6 -4 14 -28 18 -54 4 -26 13 -49 21 -52 8 -3 15 -12 15 -21 0 -8 4 -15
9 -15 4 0 11 -19 14 -41 3 -23 10 -45 15 -48 5 -3 12 -23 16 -43 4 -21 11 -38
16 -38 4 0 11 -14 15 -30 4 -17 10 -30 15 -30 5 0 11 -14 15 -30 4 -17 10 -30
15 -30 5 0 11 -14 15 -30 4 -17 10 -30 15 -30 5 0 11 -14 15 -30 4 -17 10 -30
15 -30 4 0 14 -22 21 -50 7 -28 16 -50 20 -50 4 0 10 -13 14 -30 4 -16 10 -30
15 -30 4 0 11 -16 14 -35 4 -19 11 -35 16 -35 4 0 11 -14 15 -30 4 -17 10 -30
15 -30 5 0 11 -13 15 -30 4 -17 10 -30 15 -30 4 0 11 -16 14 -35 4 -19 11 -35
16 -35 4 0 11 -13 15 -30 4 -16 11 -30 16 -30 5 0 9 -7 9 -15 0 -9 6 -18 14
-21 8 -3 18 -19 21 -35 4 -16 10 -29 15 -29 5 0 11 -13 15 -30 4 -16 10 -30
15 -30 4 0 11 -16 14 -35 4 -19 11 -35 16 -35 6 0 10 -7 10 -15 0 -9 6 -18 14
-21 8 -3 18 -19 21 -35 4 -16 10 -29 15 -29 4 0 11 -11 14 -25 4 -14 10 -25
15 -25 5 0 12 -14 16 -30 4 -17 10 -30 15 -30 4 0 11 -11 14 -25 4 -14 10 -25
15 -25 5 0 12 -14 16 -30 4 -17 11 -30 16 -30 5 0 9 -7 9 -15 0 -9 6 -18 14
-21 8 -3 17 -17 21 -32 4 -15 10 -29 13 -32 4 -3 18 -27 32 -55 14 -27 31 -56
38 -63 6 -7 12 -20 12 -28 0 -8 3 -14 8 -14 4 0 14 -15 21 -32 8 -18 21 -39
28 -46 7 -7 13 -20 13 -28 0 -8 5 -14 10 -14 6 0 10 -7 10 -15 0 -9 6 -18 14
-21 8 -3 17 -16 20 -30 4 -13 10 -24 15 -24 5 0 12 -13 16 -30 4 -16 11 -30
16 -30 5 0 11 -11 15 -25 3 -14 10 -25 15 -25 5 0 9 -7 9 -15 0 -9 6 -18 14
-21 8 -3 17 -16 20 -30 4 -13 11 -24 16 -24 6 0 10 -7 10 -15 0 -9 7 -18 15
-21 8 -3 17 -21 21 -39 3 -19 12 -36 20 -39 8 -3 14 -12 14 -21 0 -8 4 -15 10
-15 5 0 12 -11 16 -25 3 -14 10 -25 15 -25 5 0 9 -7 9 -15 0 -9 6 -18 14 -21
8 -3 17 -16 20 -30 4 -13 10 -24 15 -24 5 0 12 -13 16 -29 3 -16 13 -32 21
-35 8 -3 14 -15 14 -26 0 -11 5 -20 10 -20 6 0 10 -7 10 -15 0 -9 6 -18 14
-21 8 -3 18 -19 21 -35 4 -16 11 -29 16 -29 5 0 11 -11 15 -24 3 -14 12 -27
20 -30 8 -3 14 -12 14 -21 0 -8 4 -15 9 -15 5 0 12 -11 15 -25 4 -14 10 -25
15 -25 5 0 12 -14 16 -30 4 -17 10 -30 15 -30 4 0 13 -13 19 -30 5 -16 14 -30
20 -30 5 0 12 -13 16 -30 4 -16 11 -30 16 -30 5 0 11 -11 15 -24 3 -14 12 -27
20 -30 8 -3 14 -12 14 -21 0 -8 4 -15 9 -15 5 0 13 -10 17 -22 3 -12 13 -28
20 -36 8 -7 14 -19 14 -27 0 -7 7 -15 15 -19 8 -3 15 -12 15 -21 0 -8 4 -15
10 -15 5 0 12 -11 16 -25 3 -14 10 -25 15 -25 5 0 9 -7 9 -15 0 -9 6 -18 14
-21 8 -3 17 -16 20 -30 4 -13 11 -24 16 -24 6 0 10 -7 10 -15 0 -8 9 -23 20
-32 11 -10 20 -23 20 -30 0 -7 4 -13 10 -13 5 0 12 -11 16 -24 3 -14 12 -27
20 -30 8 -3 14 -11 14 -17 0 -6 11 -22 24 -34 13 -12 27 -32 31 -43 3 -12 10
-22 15 -22 4 0 11 -11 14 -25 4 -14 11 -25 16 -25 6 0 10 -7 10 -15 0 -9 7
-18 15 -21 8 -3 17 -15 21 -26 3 -12 17 -31 30 -43 13 -12 24 -26 24 -31 0 -5
9 -17 20 -27 11 -9 20 -24 20 -32 0 -8 5 -15 11 -15 5 0 15 -14 20 -30 6 -17
15 -30 19 -30 5 0 12 -10 15 -22 4 -11 17 -31 29 -42 13 -12 25 -29 29 -39 3
-9 11 -17 17 -17 5 0 10 -7 10 -15 0 -8 9 -23 20 -32 11 -10 20 -22 20 -27 0
-5 11 -19 24 -31 13 -12 27 -32 31 -43 3 -12 11 -22 16 -22 5 0 9 -7 9 -15 0
-8 9 -23 20 -32 11 -10 20 -22 20 -27 0 -5 11 -19 24 -31 13 -12 27 -32 31
-43 3 -12 11 -22 16 -22 5 0 13 -8 16 -18 4 -9 16 -26 29 -38 12 -11 25 -31
29 -42 3 -12 10 -22 15 -22 5 0 12 -10 15 -22 4 -11 18 -31 31 -43 13 -12 24
-26 24 -31 0 -5 13 -21 29 -35 15 -14 31 -35 35 -47 4 -12 12 -22 17 -22 5 0
13 -8 16 -17 8 -21 21 -37 46 -61 9 -9 17 -20 17 -24 0 -7 21 -36 48 -63 6 -8
12 -17 12 -22 0 -5 13 -20 30 -33 16 -14 29 -30 30 -37 0 -7 16 -27 35 -46 19
-19 35 -39 35 -46 0 -6 18 -28 40 -50 22 -21 40 -42 40 -47 0 -4 20 -27 45
-51 25 -23 45 -47 45 -52 0 -4 23 -32 50 -60 28 -28 50 -56 50 -61 0 -5 34
-43 75 -83 41 -41 75 -77 75 -81 0 -8 36 -48 183 -198 53 -55 97 -104 97 -109
0 -10 324 -339 333 -339 3 0 41 -34 84 -76 128 -124 140 -134 148 -134 4 0 18
-11 30 -24 12 -13 32 -27 43 -31 12 -3 22 -11 22 -16 0 -5 9 -9 20 -9 11 0 20
3 20 6 0 3 -49 56 -110 117 -306 312 -390 400 -390 409 0 4 -52 61 -115 124
-63 64 -115 119 -115 124 0 5 -38 48 -85 96 -47 48 -85 91 -85 96 0 6 -27 37
-60 70 -33 33 -60 64 -60 70 0 6 -18 28 -40 49 -22 22 -40 43 -40 49 0 5 -16
24 -35 43 -19 19 -35 37 -35 41 0 4 -13 21 -30 38 -16 16 -30 34 -30 38 0 5
-14 23 -30 40 -17 17 -30 36 -30 43 -1 7 -14 23 -30 37 -17 13 -30 28 -30 33
0 5 -13 22 -30 39 -16 16 -30 34 -30 39 0 6 -11 20 -25 33 -14 13 -25 27 -25
32 0 5 -8 17 -17 26 -25 24 -38 40 -46 60 -3 10 -11 18 -16 18 -5 0 -14 13
-20 30 -5 16 -14 30 -20 30 -5 0 -13 10 -16 22 -4 11 -17 31 -29 42 -13 12
-25 29 -29 39 -3 9 -11 17 -16 17 -5 0 -13 10 -17 23 -4 12 -17 31 -29 43 -13
11 -26 31 -30 42 -3 12 -11 22 -16 22 -5 0 -13 8 -16 17 -4 10 -16 27 -29 39
-12 11 -25 30 -28 42 -4 11 -13 23 -21 26 -8 3 -15 12 -15 21 0 8 -4 15 -9 15
-5 0 -13 10 -17 23 -4 12 -17 31 -29 43 -13 11 -26 31 -30 42 -3 12 -11 22
-16 22 -5 0 -9 7 -9 15 0 9 -7 18 -15 21 -8 4 -15 12 -15 20 0 8 -9 22 -20 31
-11 10 -20 23 -20 30 0 7 -4 13 -9 13 -5 0 -13 10 -17 22 -3 12 -13 28 -20 36
-8 7 -14 19 -14 27 0 7 -7 15 -15 19 -8 3 -15 12 -15 21 0 8 -4 15 -10 15 -5
0 -12 11 -16 25 -3 14 -10 25 -15 25 -5 0 -9 7 -9 15 0 9 -7 18 -15 21 -8 4
-15 12 -15 19 0 8 -6 20 -12 27 -20 21 -38 56 -38 73 0 8 -4 15 -10 15 -5 0
-10 7 -10 15 0 9 -6 18 -14 21 -8 3 -17 16 -20 30 -4 13 -10 24 -15 24 -5 0
-12 13 -16 29 -3 16 -13 32 -21 35 -8 3 -14 12 -14 21 0 8 -4 15 -10 15 -5 0
-12 11 -16 25 -3 14 -10 25 -14 25 -4 0 -11 11 -14 25 -4 14 -11 25 -16 25 -6
0 -10 7 -10 15 0 9 -6 18 -14 21 -8 3 -18 19 -21 35 -4 16 -11 29 -16 29 -5 0
-11 11 -15 24 -3 14 -12 27 -20 30 -8 3 -14 12 -14 21 0 8 -4 15 -9 15 -5 0
-12 11 -15 25 -4 14 -10 25 -15 25 -5 0 -12 13 -16 30 -4 16 -11 30 -16 30 -5
0 -11 11 -15 25 -3 14 -10 25 -15 25 -5 0 -9 7 -9 15 0 9 -6 18 -14 21 -8 3
-17 16 -20 30 -4 13 -10 24 -15 24 -5 0 -12 13 -16 29 -3 16 -13 32 -21 35 -8
3 -14 15 -14 26 0 11 -4 20 -10 20 -5 0 -10 7 -10 15 0 9 -6 18 -14 21 -8 3
-18 19 -21 35 -4 16 -11 29 -16 29 -5 0 -11 11 -15 25 -3 14 -10 25 -15 25 -5
0 -9 7 -9 15 0 9 -7 18 -15 21 -8 3 -17 22 -21 41 -4 19 -12 37 -20 40 -7 2
-16 18 -19 34 -4 16 -11 29 -16 29 -5 0 -11 11 -15 25 -3 14 -10 25 -15 25 -5
0 -9 7 -9 15 0 9 -6 18 -14 21 -8 3 -18 19 -21 35 -4 16 -10 29 -15 29 -4 0
-11 11 -14 25 -4 14 -10 25 -15 25 -5 0 -12 13 -16 30 -4 16 -11 30 -16 30 -5
0 -11 11 -15 25 -3 14 -10 25 -14 25 -5 0 -11 13 -15 29 -3 16 -13 32 -21 35
-8 3 -14 12 -14 21 0 8 -4 15 -9 15 -5 0 -12 14 -16 30 -4 17 -11 30 -16 30
-5 0 -11 11 -15 25 -3 14 -10 25 -14 25 -4 0 -11 11 -14 25 -4 14 -10 25 -15
25 -5 0 -12 13 -16 29 -3 16 -13 32 -21 35 -8 3 -14 12 -14 21 0 8 -4 15 -9
15 -5 0 -12 13 -16 30 -4 16 -11 30 -16 30 -5 0 -11 11 -15 25 -3 14 -10 25
-14 25 -4 0 -11 11 -14 25 -4 14 -10 25 -15 25 -5 0 -12 13 -16 29 -3 16 -13
32 -21 35 -8 3 -14 18 -14 33 0 20 -3 24 -9 14 -7 -10 -11 -5 -16 18 -3 17
-11 31 -16 31 -5 0 -11 11 -15 25 -3 14 -9 25 -13 25 -5 0 -14 18 -21 40 -7
22 -17 40 -21 40 -4 0 -10 13 -14 29 -3 16 -13 32 -21 35 -8 3 -14 12 -14 21
0 8 -4 15 -9 15 -5 0 -12 13 -16 30 -4 16 -11 30 -16 30 -5 0 -11 11 -15 25
-3 14 -10 25 -14 25 -4 0 -11 11 -14 25 -4 14 -10 25 -15 25 -5 0 -12 13 -16
30 -4 16 -11 30 -16 30 -5 0 -9 7 -9 15 0 9 -6 18 -14 21 -8 3 -18 19 -21 35
-4 16 -10 29 -15 29 -4 0 -11 11 -14 25 -4 14 -10 25 -15 25 -5 0 -12 13 -16
30 -4 16 -10 30 -15 30 -5 0 -11 13 -15 30 -4 16 -10 30 -15 30 -4 0 -11 11
-14 25 -4 14 -10 25 -15 25 -5 0 -12 13 -16 30 -4 16 -10 30 -15 30 -5 0 -11
13 -15 29 -3 16 -13 32 -21 35 -8 3 -14 15 -14 26 0 11 -4 20 -10 20 -5 0 -10
7 -10 15 0 9 -6 18 -14 21 -8 3 -18 19 -21 35 -4 16 -10 29 -15 29 -4 0 -11
11 -14 25 -4 14 -10 25 -15 25 -5 0 -12 13 -16 30 -4 16 -10 30 -15 30 -5 0
-11 14 -15 30 -4 17 -10 30 -15 30 -5 0 -12 10 -16 23 -4 12 -10 24 -15 27 -5
3 -32 60 -60 125 l-53 120 3 315 c2 173 6 317 11 320 4 3 10 185 14 405 4 220
11 402 15 405 5 3 11 113 15 245 4 134 11 241 17 243 5 2 9 29 9 60 0 100 24
442 31 442 3 0 10 59 14 130 4 72 10 130 15 130 4 0 11 59 15 130 4 72 10 130
15 130 4 0 11 63 15 140 4 77 11 140 15 140 4 0 11 61 15 135 4 74 11 135 15
135 4 0 11 56 15 125 4 69 11 125 15 125 4 0 11 54 15 120 4 66 11 120 15 120
4 0 11 56 15 125 4 69 11 125 15 125 4 0 11 54 15 120 4 66 11 120 15 120 5 0
12 45 15 100 4 55 11 100 15 100 4 0 11 41 15 90 4 50 11 90 15 90 5 0 11 43
15 95 4 52 11 95 16 95 4 0 11 36 15 80 3 44 10 80 15 80 4 0 11 32 15 70 3
39 10 70 14 70 4 0 11 34 15 75 4 41 10 75 14 75 5 0 11 30 15 68 4 37 11 81
16 97 4 17 26 98 49 180 22 83 54 200 70 260 17 61 62 238 101 395 90 361 133
520 172 640 52 158 245 609 305 710 50 84 140 190 161 190 4 0 19 13 33 29 14
15 35 31 47 35 12 4 22 12 22 17 0 5 5 9 10 9 6 0 21 11 34 25 13 14 27 25 32
25 5 0 17 9 27 20 9 11 23 20 31 20 8 0 16 7 20 15 3 8 12 15 21 15 8 0 15 4
15 9 0 5 10 13 22 16 11 4 31 18 43 31 12 13 28 24 34 24 6 0 14 7 17 15 4 8
12 15 20 15 8 0 22 9 31 20 10 11 22 20 28 20 6 0 17 9 25 20 8 11 19 20 25
20 6 0 18 9 28 20 9 11 23 20 31 20 8 0 16 7 20 15 3 8 11 15 17 15 6 0 22 11
35 25 13 14 28 25 34 25 6 0 13 7 16 15 4 8 12 15 20 15 8 0 22 9 31 20 10 11
23 20 30 20 7 0 13 4 13 10 0 5 11 12 24 16 14 3 27 12 30 20 3 8 11 14 18 14
7 0 22 11 32 25 10 14 25 25 32 25 8 0 14 4 14 10 0 5 11 12 24 16 14 3 27 12
30 20 3 8 11 14 17 14 6 0 22 11 34 24 12 13 32 27 43 31 12 3 22 11 22 16 0
5 7 9 15 9 9 0 18 6 21 14 3 8 16 17 30 20 13 4 24 11 24 16 0 6 7 10 15 10 9
0 18 7 21 15 4 8 11 15 16 15 6 0 21 11 34 25 13 14 27 25 32 25 5 0 19 9 32
20 13 11 29 20 37 20 7 0 13 4 13 10 0 5 11 12 24 16 14 3 27 12 30 20 3 8 12
14 21 14 8 0 15 4 15 10 0 5 11 12 24 16 14 3 27 12 30 20 3 8 12 14 21 14 8
0 15 4 15 9 0 5 11 12 25 15 14 4 25 11 25 16 0 6 7 10 15 10 9 0 18 7 21 15
4 8 12 15 20 15 8 0 14 4 14 9 0 5 13 12 30 16 16 4 30 11 30 16 0 5 11 11 25
15 14 3 25 10 25 14 0 5 13 11 29 15 16 3 32 13 35 21 3 8 12 14 21 14 8 0 15
4 15 9 0 5 11 12 25 15 14 4 25 11 25 16 0 6 7 10 15 10 9 0 18 6 21 14 3 8
19 18 35 21 16 4 29 10 29 15 0 5 13 11 29 15 16 3 32 13 35 21 3 8 12 14 21
14 8 0 15 5 15 10 0 6 7 10 15 10 8 0 15 4 15 10 0 5 11 12 24 16 14 3 27 12
30 20 3 8 12 14 21 14 8 0 15 4 15 9 0 5 14 12 30 16 17 4 30 10 30 15 0 5 13
11 30 15 16 4 30 11 30 16 0 5 18 12 40 15 22 4 40 10 40 14 0 5 13 11 30 15
16 4 30 11 30 15 0 5 16 12 35 16 19 3 35 10 35 14 0 4 20 11 45 14 25 4 45
11 45 16 0 5 16 12 35 16 19 3 35 10 35 15 0 5 7 9 15 9 8 0 15 4 15 9 0 5 18
11 40 15 22 3 40 10 40 16 0 5 16 12 35 16 19 3 35 10 35 14 0 4 20 11 45 14
25 4 45 11 45 16 0 6 18 13 40 16 22 4 40 10 40 15 0 4 20 11 45 15 25 3 45
10 45 15 0 4 20 11 45 15 25 3 45 10 45 15 0 5 9 9 19 9 11 0 26 7 35 15 16
16 116 22 116 6 0 -5 52 -12 115 -16 63 -4 115 -11 115 -15 0 -4 40 -11 90
-15 49 -4 90 -11 90 -15 0 -5 36 -12 80 -16 44 -3 80 -10 80 -14 0 -5 34 -11
75 -15 41 -4 75 -11 75 -15 0 -4 29 -11 65 -15 36 -3 65 -10 65 -15 0 -4 25
-11 55 -15 30 -3 55 -10 55 -14 0 -5 23 -11 50 -15 27 -4 50 -11 50 -16 0 -6
11 -10 25 -10 14 0 25 -4 25 -9 0 -6 20 -13 45 -17 25 -3 45 -10 45 -14 0 -5
18 -11 40 -15 22 -4 40 -10 40 -15 0 -4 20 -11 45 -14 25 -4 45 -11 45 -16 0
-6 18 -13 40 -16 22 -4 40 -10 40 -14 0 -4 16 -11 35 -14 19 -4 35 -11 35 -15
0 -5 18 -11 40 -15 22 -3 40 -10 40 -15 0 -5 16 -12 35 -15 19 -4 35 -11 35
-15 0 -5 18 -11 40 -15 22 -3 40 -10 40 -15 0 -5 16 -12 35 -15 19 -4 35 -11
35 -16 0 -6 7 -10 15 -10 8 0 15 -4 15 -9 0 -4 16 -11 35 -14 19 -3 42 -13 51
-21 8 -9 26 -16 40 -16 13 0 24 -4 24 -9 0 -5 14 -12 30 -16 17 -4 30 -11 30
-15 0 -5 16 -12 35 -16 19 -3 35 -10 35 -14 0 -5 14 -11 30 -15 17 -4 30 -10
30 -15 0 -5 14 -11 30 -15 17 -4 30 -10 30 -15 0 -4 18 -10 40 -14 22 -3 40
-10 40 -16 0 -5 16 -12 35 -16 19 -3 35 -10 35 -14 0 -5 14 -11 30 -15 17 -4
30 -11 30 -16 0 -5 7 -9 15 -9 8 0 15 -4 15 -9 0 -5 14 -12 30 -16 17 -4 30
-10 30 -15 0 -5 14 -11 30 -15 17 -4 30 -10 30 -15 0 -5 14 -11 30 -15 17 -4
30 -10 30 -15 0 -5 14 -11 30 -15 17 -4 30 -10 30 -15 0 -5 14 -11 30 -15 17
-4 30 -10 30 -15 0 -5 14 -11 30 -15 17 -4 30 -11 30 -16 0 -5 7 -9 15 -9 9 0
18 -6 21 -14 3 -8 19 -18 35 -21 16 -4 29 -10 29 -15 0 -5 14 -11 30 -15 17
-4 30 -11 30 -16 0 -5 7 -9 15 -9 8 0 15 -4 15 -10 0 -5 11 -12 25 -16 14 -3
25 -10 25 -14 0 -5 14 -11 30 -15 17 -4 30 -11 30 -16 0 -5 7 -9 15 -9 9 0 18
-6 21 -14 3 -8 19 -18 35 -21 16 -4 29 -10 29 -15 0 -5 14 -11 30 -15 17 -4
30 -10 30 -15 0 -4 16 -11 35 -14 19 -4 35 -11 35 -15 0 -5 18 -11 40 -13 24
-2 40 1 40 7 0 6 13 22 30 35 16 14 29 30 30 36 0 13 223 244 234 244 4 0 21
14 38 30 16 17 35 30 41 30 7 1 23 14 37 30 13 17 30 30 37 30 7 0 13 4 13 10
0 5 11 12 24 16 13 3 28 16 35 30 6 13 16 24 22 24 7 0 22 11 34 24 12 13 31
27 43 30 11 4 23 13 26 21 3 8 11 15 17 15 6 0 22 11 34 24 12 13 31 27 43 30
11 4 23 13 26 21 3 8 12 15 21 15 8 0 15 4 15 10 0 5 11 12 24 16 14 3 27 12
30 20 3 8 11 14 18 14 7 0 22 11 32 25 10 14 25 25 32 25 8 0 14 4 14 9 0 5
11 12 25 15 14 4 25 11 25 16 0 6 7 10 15 10 9 0 18 7 21 15 4 8 12 15 20 15
8 0 22 9 31 20 10 11 21 20 26 20 4 0 20 11 35 25 15 13 41 38 59 54 18 16 41
32 52 36 12 3 21 11 21 16 0 5 5 9 10 9 6 0 21 10 33 23 12 13 30 26 40 30 9
3 17 11 17 16 0 5 11 12 25 15 14 4 25 11 25 16 0 6 7 10 15 10 9 0 18 6 21
14 3 8 16 17 30 20 13 4 24 11 24 16 0 6 7 10 15 10 9 0 18 6 21 14 3 8 19 18
35 21 16 4 29 11 29 16 0 5 11 11 25 15 13 3 27 14 30 24 3 10 19 22 35 25 17
4 30 11 30 16 0 5 11 11 25 15 14 3 25 10 25 14 0 5 13 11 29 15 16 3 32 13
35 21 3 8 12 14 21 14 8 0 15 5 15 10 0 6 7 10 15 10 9 0 18 6 21 14 3 8 19
18 35 21 16 4 29 10 29 15 0 5 14 11 30 15 17 4 30 11 30 16 0 5 11 11 25 15
14 3 25 10 25 14 0 5 14 11 30 15 17 4 30 11 30 16 0 5 7 9 15 9 8 0 15 4 15
9 0 5 14 12 30 16 17 4 30 10 30 15 0 5 13 11 29 15 16 3 32 13 35 21 3 8 12
14 21 14 8 0 15 4 15 9 0 5 14 12 30 16 17 4 30 10 30 15 0 5 14 11 30 15 17
4 30 11 30 16 0 5 11 9 24 9 14 0 31 6 38 13 7 8 30 17 51 21 20 4 37 11 37
16 0 5 20 12 45 16 25 3 45 10 45 15 0 4 16 11 35 15 19 3 35 10 35 15 0 5 11
9 25 9 14 0 25 4 25 9 0 5 14 12 30 16 17 4 30 10 30 15 0 4 13 10 29 13 16 3
31 13 34 21 5 13 -3 16 -51 14 -31 -1 -74 -3 -94 -5z"/>
<path d="M14320 17624 c0 -9 11 -27 25 -40 14 -13 25 -28 25 -35 0 -6 42 -53
93 -104 133 -134 197 -205 197 -216 0 -6 11 -20 25 -33 14 -13 25 -29 25 -35
0 -6 7 -14 15 -17 8 -3 17 -15 21 -26 3 -12 17 -31 30 -43 13 -12 24 -26 24
-31 0 -5 9 -17 20 -27 11 -9 20 -24 20 -32 0 -8 4 -15 9 -15 5 0 13 -10 16
-22 4 -11 17 -31 29 -42 13 -12 25 -29 29 -38 3 -10 11 -18 16 -18 5 0 12 -13
16 -30 4 -16 11 -30 16 -30 5 0 11 -11 15 -25 3 -14 10 -25 14 -25 5 0 11 -13
15 -30 4 -16 11 -30 16 -30 5 0 11 -11 15 -25 3 -14 10 -25 14 -25 5 0 11 -13
15 -30 4 -16 11 -30 16 -30 5 0 9 -7 9 -15 0 -9 6 -18 14 -21 8 -3 18 -19 21
-35 4 -16 11 -29 15 -29 5 0 12 -16 16 -35 3 -19 10 -35 14 -35 4 0 10 -9 13
-20 9 -35 27 -22 27 20 0 22 -4 40 -9 40 -4 0 -11 19 -14 41 -3 23 -10 45 -15
48 -5 3 -13 21 -17 39 -3 17 -10 32 -15 32 -4 0 -10 18 -14 40 -3 22 -10 40
-15 40 -5 0 -12 14 -16 30 -4 17 -10 30 -15 30 -5 0 -11 14 -15 30 -4 17 -10
30 -15 30 -4 0 -11 11 -14 25 -4 14 -10 25 -15 25 -5 0 -12 14 -16 30 -4 17
-10 30 -15 30 -5 0 -11 14 -15 30 -4 17 -10 30 -15 30 -5 0 -11 14 -15 30 -4
17 -11 30 -16 30 -5 0 -11 11 -15 25 -3 14 -10 25 -15 25 -5 0 -9 7 -9 15 0 9
-6 18 -14 21 -8 3 -17 16 -20 30 -4 13 -11 24 -16 24 -6 0 -10 7 -10 15 0 9
-7 18 -15 21 -8 3 -17 16 -21 27 -4 12 -37 52 -75 89 -37 37 -70 76 -74 88 -3
11 -13 20 -20 20 -15 0 -85 67 -85 81 0 5 -11 11 -25 15 -13 3 -27 15 -30 25
-4 10 -17 22 -31 25 -13 3 -24 10 -24 15 0 5 -8 13 -17 16 -10 4 -24 13 -31
20 -20 19 -72 17 -72 -3z"/>
<path d="M15190 16195 c0 -8 -4 -15 -9 -15 -5 0 -13 -10 -17 -22 -3 -12 -13
-28 -20 -36 -8 -7 -14 -20 -14 -28 0 -8 -4 -14 -10 -14 -5 0 -10 -7 -10 -15 0
-9 -6 -18 -14 -21 -8 -3 -17 -16 -20 -30 -4 -13 -10 -24 -15 -24 -5 0 -12 -13
-16 -29 -3 -16 -13 -32 -21 -35 -8 -3 -14 -12 -14 -21 0 -8 -4 -15 -10 -15 -5
0 -12 -16 -16 -35 -3 -19 -10 -35 -15 -35 -5 0 -9 -7 -9 -15 0 -9 -6 -18 -14
-21 -8 -3 -18 -19 -21 -35 -4 -16 -11 -29 -16 -29 -5 0 -11 -11 -15 -24 -3
-14 -12 -27 -20 -30 -8 -3 -14 -12 -14 -21 0 -8 -4 -15 -10 -15 -5 0 -12 -16
-16 -35 -3 -19 -10 -35 -14 -35 -5 0 -11 -13 -15 -29 -3 -16 -13 -32 -21 -35
-8 -3 -14 -12 -14 -21 0 -8 -4 -15 -9 -15 -5 0 -12 -13 -16 -30 -4 -16 -10
-30 -15 -30 -5 0 -11 -13 -15 -30 -4 -16 -11 -30 -15 -30 -5 0 -12 -16 -16
-35 -3 -19 -10 -35 -14 -35 -5 0 -11 -13 -15 -30 -4 -16 -10 -30 -15 -30 -5 0
-11 -13 -15 -30 -4 -16 -10 -30 -15 -30 -5 0 -11 -13 -15 -29 -3 -16 -12 -32
-20 -34 -7 -3 -16 -19 -20 -36 -4 -17 -10 -31 -15 -31 -4 0 -11 -18 -15 -40
-4 -22 -11 -40 -15 -40 -5 0 -11 -13 -15 -30 -4 -16 -11 -30 -16 -30 -5 0 -11
-11 -15 -25 -3 -14 -10 -25 -14 -25 -5 0 -11 -13 -15 -30 -4 -16 -10 -30 -15
-30 -5 0 -11 -13 -15 -30 -4 -16 -10 -30 -15 -30 -5 0 -11 -13 -15 -30 -4 -16
-11 -30 -16 -30 -5 0 -12 -18 -15 -40 -4 -22 -10 -40 -15 -40 -15 0 -10 -28 6
-34 8 -3 15 -17 15 -30 0 -19 7 -27 25 -32 14 -3 25 -10 25 -15 0 -5 7 -9 15
-9 8 0 15 -4 15 -9 0 -5 16 -12 35 -15 19 -4 35 -11 35 -16 0 -4 14 -11 30
-15 17 -4 30 -10 30 -15 0 -4 16 -11 35 -14 19 -4 35 -11 35 -16 0 -6 18 -13
40 -16 22 -4 40 -10 40 -14 0 -5 14 -11 30 -15 17 -4 30 -10 30 -15 0 -4 16
-11 35 -14 19 -4 35 -11 35 -15 0 -5 18 -11 40 -15 22 -3 40 -10 40 -15 0 -5
16 -12 35 -15 19 -4 35 -11 35 -16 0 -6 18 -13 40 -16 22 -4 40 -10 40 -15 0
-5 7 -9 15 -9 8 0 15 -4 15 -10 0 -5 16 -12 35 -16 19 -3 35 -10 35 -15 0 -4
16 -11 35 -15 19 -3 35 -10 35 -15 0 -5 18 -12 40 -15 22 -4 40 -10 40 -15 0
-4 16 -11 35 -15 19 -3 35 -10 35 -14 0 -4 18 -10 40 -14 22 -3 40 -10 40 -16
0 -5 20 -12 45 -16 25 -3 45 -10 45 -15 0 -4 20 -11 45 -15 25 -3 45 -10 45
-15 0 -4 20 -11 45 -15 25 -3 45 -10 45 -14 0 -4 16 -11 35 -14 19 -4 35 -11
35 -16 0 -6 11 -10 25 -10 14 0 25 -4 25 -9 0 -5 18 -12 40 -16 22 -4 40 -10
40 -15 0 -4 20 -11 45 -14 25 -4 45 -11 45 -15 0 -5 20 -12 45 -15 25 -4 45
-11 45 -15 0 -5 20 -12 45 -15 25 -4 45 -11 45 -15 0 -5 25 -12 55 -16 30 -3
55 -10 55 -14 0 -5 13 -11 29 -14 26 -6 30 -11 36 -57 4 -27 10 -50 15 -50 4
0 10 -19 13 -41 3 -23 10 -45 15 -48 5 -3 13 -21 17 -38 3 -18 11 -33 16 -33
5 0 12 -18 15 -40 4 -22 10 -40 14 -40 4 0 11 -12 15 -27 3 -15 10 -30 14 -33
5 -3 11 -22 15 -42 8 -42 17 -36 -99 -57 -33 -6 -89 -16 -125 -22 -36 -5 -105
-17 -155 -25 -117 -19 -255 -41 -380 -59 -129 -18 -168 -26 -475 -85 -140 -27
-570 -110 -955 -184 -385 -74 -785 -151 -889 -171 -104 -19 -192 -38 -197 -41
-5 -3 -9 -12 -9 -20 0 -8 -4 -14 -9 -14 -5 0 -12 -19 -16 -42 -4 -24 -11 -46
-16 -49 -5 -3 -15 -51 -21 -107 -7 -56 -16 -102 -19 -102 -4 0 -11 -29 -14
-65 -4 -36 -11 -65 -15 -65 -5 0 -12 -36 -16 -80 -3 -44 -11 -80 -15 -80 -5 0
-9 -29 -9 -65 0 -37 4 -65 10 -65 6 0 10 -9 10 -20 0 -11 6 -20 14 -20 8 0 16
-7 20 -15 3 -8 12 -15 21 -15 8 0 15 -4 15 -10 0 -5 7 -10 15 -10 9 0 18 -6
21 -14 3 -8 19 -18 35 -21 16 -4 29 -11 29 -16 0 -5 11 -11 25 -15 14 -3 25
-10 25 -14 0 -5 14 -11 30 -15 17 -4 30 -10 30 -15 0 -5 14 -11 30 -15 17 -4
30 -11 30 -16 0 -5 9 -9 20 -9 11 0 20 -4 20 -9 0 -5 14 -12 30 -16 17 -4 30
-10 30 -15 0 -4 18 -10 40 -14 22 -3 40 -10 40 -15 0 -5 14 -12 30 -16 17 -4
30 -11 30 -15 0 -5 16 -12 35 -16 19 -3 35 -10 35 -15 0 -5 18 -12 40 -15 22
-4 40 -10 40 -14 0 -4 16 -11 35 -14 19 -4 35 -11 35 -16 0 -5 16 -12 35 -16
19 -3 35 -10 35 -15 0 -5 18 -12 40 -15 22 -4 40 -10 40 -15 0 -5 7 -9 15 -9
8 0 15 -4 15 -9 0 -6 20 -13 45 -17 25 -3 45 -10 45 -15 0 -4 20 -11 45 -15
25 -3 45 -10 45 -15 0 -4 20 -11 45 -15 25 -3 45 -10 45 -15 0 -4 20 -11 45
-15 25 -3 45 -10 45 -15 0 -4 20 -11 45 -15 25 -3 45 -10 45 -14 0 -5 23 -11
50 -15 28 -4 50 -10 50 -15 0 -4 23 -10 50 -14 28 -4 50 -11 50 -15 0 -5 27
-12 60 -16 33 -4 60 -11 60 -15 0 -4 27 -11 60 -15 33 -4 60 -11 60 -16 0 -5
14 -9 30 -9 17 0 30 -4 30 -9 0 -4 32 -12 70 -15 39 -4 70 -11 70 -16 0 -5 25
-12 55 -15 30 -4 55 -11 55 -16 0 -4 32 -11 70 -15 39 -3 70 -10 70 -14 0 -5
29 -12 65 -15 36 -4 65 -11 65 -16 0 -4 32 -11 70 -15 39 -3 70 -10 70 -14 0
-4 36 -11 80 -14 44 -4 80 -11 80 -16 0 -5 36 -12 80 -16 44 -3 80 -10 80 -14
0 -5 38 -11 85 -15 47 -4 85 -11 85 -15 0 -4 41 -11 90 -15 50 -4 90 -11 90
-16 0 -5 20 -9 44 -9 24 0 46 -4 48 -9 2 -5 58 -13 126 -17 67 -4 122 -11 122
-15 0 -5 37 -9 81 -11 l81 -3 -153 -157 c-304 -311 -349 -358 -349 -368 0 -5
-34 -43 -75 -83 -41 -41 -75 -77 -75 -81 0 -4 -20 -28 -45 -53 -25 -24 -45
-49 -45 -55 0 -5 -13 -23 -30 -40 -16 -16 -30 -35 -30 -41 -1 -7 -14 -23 -30
-37 -17 -13 -30 -28 -30 -33 0 -6 -11 -20 -24 -32 -13 -12 -27 -32 -31 -43 -3
-12 -11 -22 -16 -22 -5 0 -9 -7 -9 -15 0 -8 -9 -23 -20 -32 -11 -10 -20 -23
-20 -30 0 -7 -9 -21 -20 -30 -11 -10 -20 -23 -20 -30 0 -7 -4 -13 -10 -13 -5
0 -12 -11 -16 -24 -3 -14 -12 -27 -20 -30 -8 -3 -14 -12 -14 -21 0 -8 -4 -15
-9 -15 -5 0 -13 -10 -17 -22 -3 -12 -13 -28 -20 -36 -8 -7 -14 -19 -14 -27 0
-7 -7 -15 -15 -19 -8 -3 -15 -12 -15 -21 0 -8 -4 -15 -10 -15 -5 0 -12 -11
-16 -24 -3 -14 -12 -27 -20 -30 -8 -3 -14 -12 -14 -21 0 -8 -4 -15 -10 -15 -5
0 -12 -11 -16 -24 -3 -14 -12 -27 -20 -30 -8 -3 -14 -12 -14 -21 0 -8 -4 -15
-10 -15 -5 0 -10 -9 -10 -20 0 -11 -6 -23 -14 -26 -8 -3 -17 -16 -20 -30 -4
-13 -10 -24 -15 -24 -5 0 -12 -13 -16 -29 -3 -16 -13 -32 -21 -35 -8 -3 -14
-12 -14 -21 0 -8 -4 -15 -10 -15 -5 0 -12 -11 -16 -25 -3 -14 -10 -25 -15 -25
-5 0 -9 -7 -9 -15 0 -9 -7 -18 -15 -21 -8 -4 -15 -15 -15 -25 0 -11 -6 -22
-14 -25 -8 -3 -18 -19 -21 -35 -4 -16 -11 -29 -16 -29 -5 0 -11 -11 -15 -25
-3 -14 -10 -25 -15 -25 -5 0 -9 -7 -9 -15 0 -9 -6 -18 -14 -21 -8 -3 -18 -19
-21 -35 -4 -16 -11 -29 -15 -29 -5 0 -15 -18 -21 -40 -7 -22 -16 -40 -20 -40
-4 0 -10 -14 -14 -30 -4 -16 -10 -30 -15 -30 -5 0 -11 -14 -15 -30 -4 -16 -10
-30 -15 -30 -4 0 -10 -18 -14 -40 -3 -22 -11 -40 -16 -40 -6 0 -10 -18 -10
-39 0 -33 4 -40 25 -45 14 -4 25 -13 25 -21 0 -8 9 -23 20 -32 11 -10 20 -21
20 -25 0 -11 26 -41 83 -98 26 -26 47 -54 47 -61 1 -8 14 -25 30 -39 17 -13
30 -30 30 -37 0 -7 5 -13 10 -13 6 0 10 -4 10 -9 0 -5 -80 -12 -177 -16 -98
-4 -180 -11 -183 -15 -3 -5 -72 -12 -153 -16 -81 -4 -147 -10 -147 -14 0 -4
-98 -11 -217 -15 -120 -4 -220 -11 -223 -16 -3 -4 -165 -11 -360 -15 -195 -4
-357 -10 -360 -14 -7 -10 -125 -19 -137 -11 -6 3 -14 25 -18 49 -4 23 -10 42
-15 42 -4 0 -10 18 -14 40 -3 22 -10 40 -15 40 -5 0 -12 13 -16 30 -4 16 -10
30 -15 30 -4 0 -11 11 -14 25 -4 14 -10 25 -15 25 -5 0 -12 13 -16 30 -4 16
-11 30 -15 30 -5 0 -12 16 -16 35 -3 19 -10 35 -14 35 -5 0 -11 13 -15 30 -4
16 -11 30 -16 30 -5 0 -12 18 -15 40 -4 22 -10 40 -15 40 -4 0 -13 25 -19 55
-6 30 -15 55 -20 55 -4 0 -11 16 -14 35 -4 19 -11 35 -16 35 -5 0 -12 16 -16
35 -3 19 -10 35 -14 35 -5 0 -12 14 -15 32 -4 17 -14 38 -21 46 -8 7 -14 20
-14 28 0 8 -4 14 -9 14 -5 0 -12 13 -16 30 -4 16 -10 30 -15 30 -5 0 -11 13
-15 29 -3 16 -13 32 -21 35 -8 3 -14 15 -14 26 0 11 -4 20 -10 20 -5 0 -10 7
-10 15 0 9 -6 18 -14 21 -8 3 -18 19 -21 35 -4 16 -11 29 -16 29 -5 0 -11 11
-15 24 -3 14 -12 27 -20 30 -8 3 -14 12 -14 21 0 8 -4 15 -9 15 -5 0 -13 9
-16 21 -8 25 -148 169 -164 169 -6 0 -14 7 -17 15 -5 11 -22 15 -66 15 l-61 0
6 -42 c3 -24 10 -44 16 -46 6 -2 13 -19 17 -38 3 -19 10 -34 14 -34 5 0 11
-13 15 -30 4 -16 10 -30 15 -30 5 0 11 -13 15 -29 3 -16 13 -32 21 -35 8 -3
14 -13 14 -21 0 -9 4 -14 9 -11 5 4 12 -7 16 -23 3 -16 13 -32 21 -35 8 -3 14
-12 14 -21 0 -8 5 -15 10 -15 6 0 10 -9 10 -20 0 -11 6 -23 14 -26 8 -3 18
-19 21 -35 4 -16 10 -29 15 -29 4 0 11 -11 14 -25 4 -14 10 -25 15 -25 5 0 12
-13 16 -29 3 -16 13 -32 21 -35 8 -3 14 -12 14 -21 0 -8 5 -15 10 -15 6 0 10
-6 10 -14 0 -8 6 -21 14 -28 7 -8 17 -24 20 -36 4 -12 12 -22 17 -22 5 0 9 -7
9 -15 0 -9 6 -18 14 -21 8 -3 17 -16 20 -30 4 -13 11 -24 16 -24 6 0 10 -7 10
-15 0 -9 7 -18 15 -21 8 -4 15 -12 15 -19 0 -8 6 -20 14 -27 7 -8 17 -24 20
-36 4 -12 11 -22 16 -22 5 0 11 -13 15 -29 3 -16 13 -32 21 -35 8 -3 14 -12
14 -21 0 -8 4 -15 10 -15 5 0 12 -11 16 -25 3 -14 9 -25 13 -25 3 0 13 -15 20
-32 8 -18 21 -39 28 -46 7 -7 13 -20 13 -28 0 -8 4 -14 9 -14 5 0 12 -14 16
-30 4 -17 10 -30 15 -30 4 0 11 -20 14 -45 4 -25 11 -45 16 -45 5 0 11 -14 15
-30 4 -17 10 -30 15 -30 5 0 11 -14 15 -30 4 -17 11 -30 16 -30 5 0 11 -11 15
-25 3 -14 10 -25 14 -25 4 0 11 -11 14 -24 3 -14 16 -28 29 -32 12 -4 25 -12
29 -18 10 -15 687 -14 696 1 4 6 62 14 130 18 67 4 122 11 122 15 0 4 42 10
92 14 51 4 95 11 98 15 3 4 37 11 75 15 39 4 72 11 73 16 2 6 24 10 48 10 24
0 44 4 44 9 0 5 45 13 100 16 55 4 100 11 100 15 0 4 36 11 80 14 44 4 80 11
80 16 0 4 33 11 73 15 39 4 75 11 78 16 3 5 40 12 82 15 42 4 77 10 77 15 0 4
12 9 28 11 25 3 27 6 26 44 0 32 -8 49 -30 73 -86 92 -117 121 -130 121 -8 0
-14 5 -14 10 0 6 -8 14 -17 17 -10 4 -27 16 -39 29 -11 12 -31 25 -42 29 -12
3 -22 11 -22 16 0 5 -7 9 -15 9 -9 0 -18 6 -21 14 -3 8 -19 18 -35 21 -26 6
-42 35 -19 35 5 0 12 11 16 25 3 14 10 25 14 25 5 0 14 17 21 38 6 20 18 41
25 45 8 4 14 15 14 22 0 8 4 15 10 15 5 0 12 11 16 24 3 14 12 27 20 30 8 3
14 12 14 21 0 8 4 15 10 15 5 0 12 11 16 25 3 14 10 25 15 25 5 0 9 7 9 15 0
8 9 23 20 32 11 10 20 23 20 30 0 7 4 13 10 13 5 0 12 11 16 24 3 14 12 27 20
30 8 3 14 11 14 17 0 6 11 22 24 34 13 12 27 32 31 43 3 12 10 22 15 22 4 0
11 11 14 25 4 14 11 25 16 25 6 0 10 6 10 13 0 7 9 20 20 30 11 9 20 23 20 31
0 8 7 16 15 20 8 3 15 11 15 17 0 6 11 22 24 34 13 12 27 31 30 43 4 11 13 23
21 26 8 3 15 12 15 21 0 9 10 26 23 38 13 12 26 30 30 40 3 9 11 17 16 17 5 0
13 10 16 22 4 11 18 31 31 43 13 12 24 27 24 33 0 5 11 20 25 33 13 13 25 28
25 32 0 9 17 31 43 55 9 9 17 20 17 25 0 5 14 22 30 39 17 16 30 34 30 39 0 5
18 26 40 48 22 21 40 43 40 48 0 5 8 16 18 25 24 23 42 46 42 54 0 4 16 22 35
41 19 19 35 39 35 46 1 7 14 23 30 37 17 13 30 28 30 33 0 6 11 20 25 33 14
13 25 28 25 33 0 6 14 24 30 41 17 17 30 35 30 40 0 4 14 22 30 38 17 17 30
34 30 38 0 4 16 22 35 41 19 19 35 39 35 45 0 6 15 26 33 44 43 45 57 62 57
72 0 4 13 19 30 32 16 14 29 30 30 37 0 7 16 27 35 46 19 19 35 37 35 41 0 4
20 28 45 53 25 24 45 49 45 55 0 5 14 23 30 40 17 16 30 35 30 43 0 7 7 15 15
19 8 3 15 12 15 21 0 8 4 15 10 15 5 0 12 11 16 25 3 14 10 25 14 25 4 0 11
12 15 27 3 15 10 30 15 33 5 3 10 23 12 45 l3 40 -47 3 c-27 2 -48 7 -48 11 0
5 -67 12 -150 16 -82 4 -150 11 -150 15 0 4 -54 11 -120 15 -66 4 -120 10
-120 15 0 4 -40 11 -90 15 -49 4 -90 11 -90 15 0 4 -43 11 -95 15 -52 4 -95
10 -95 15 0 4 -36 11 -80 15 -44 4 -80 11 -80 15 0 4 -34 11 -75 15 -41 4 -75
11 -75 16 0 5 -18 9 -40 9 -22 0 -40 4 -40 9 0 5 -36 13 -80 17 -44 3 -80 10
-80 14 0 4 -34 11 -75 15 -41 4 -75 10 -75 15 0 4 -34 11 -75 15 -41 4 -75 10
-75 15 0 4 -29 11 -65 15 -36 3 -65 10 -65 15 0 5 -31 12 -70 16 -38 3 -70 10
-70 14 0 5 -27 11 -60 15 -33 4 -60 11 -60 15 0 4 -27 11 -60 15 -33 4 -60 10
-60 15 0 4 -22 10 -50 14 -27 4 -50 11 -50 15 0 5 -27 12 -60 16 -33 4 -60 11
-60 16 0 5 -9 9 -20 9 -11 0 -20 4 -20 9 0 5 -25 12 -55 16 -30 3 -55 10 -55
15 0 4 -27 11 -60 15 -33 4 -60 11 -60 15 0 5 -20 12 -45 16 -25 3 -45 10 -45
15 0 4 -22 11 -50 15 -27 4 -50 10 -50 14 0 4 -25 11 -55 15 -30 3 -55 10 -55
15 0 4 -18 11 -40 15 -22 4 -40 11 -40 16 0 5 -18 12 -40 15 -22 4 -40 10 -40
15 0 4 -20 11 -45 15 -25 3 -45 10 -45 15 0 5 -9 9 -20 9 -11 0 -20 4 -20 9 0
5 -13 12 -30 16 -16 4 -30 11 -30 16 0 5 -18 12 -40 15 -22 4 -40 10 -40 14 0
5 -13 11 -30 15 -16 4 -30 10 -30 15 0 5 -13 11 -30 15 -16 4 -30 11 -30 16 0
5 -7 9 -15 9 -9 0 -18 6 -21 14 -3 8 -19 18 -35 21 -16 4 -29 10 -29 15 0 5
-13 11 -30 15 -16 4 -30 10 -30 15 0 5 -13 11 -30 15 -23 5 -30 12 -30 31 0
13 4 24 9 24 5 0 12 14 16 30 4 17 10 30 13 30 4 0 13 23 20 52 6 28 16 54 21
58 6 3 13 25 17 48 4 23 10 42 15 42 4 0 11 25 14 55 4 30 11 55 16 55 4 0 11
20 15 45 3 25 10 45 14 45 4 0 11 27 15 60 8 69 -4 63 155 81 143 15 424 67
1160 214 344 68 789 156 990 195 201 39 397 78 437 86 40 7 90 14 113 14 22 0
40 5 40 10 0 6 23 10 50 10 28 0 58 4 68 10 9 5 61 12 115 15 53 4 97 10 97
15 0 4 36 11 80 14 44 4 80 12 80 17 0 5 7 9 15 9 8 0 15 7 15 15 0 8 5 15 10
15 6 0 10 20 10 45 0 25 -4 45 -9 45 -5 0 -12 16 -15 35 -4 19 -11 35 -15 35
-5 0 -12 16 -15 35 -4 19 -11 35 -16 35 -4 0 -11 13 -15 29 -3 16 -13 32 -21
35 -8 3 -14 12 -14 21 0 8 -4 15 -10 15 -5 0 -10 6 -10 14 0 8 -6 21 -12 28
-7 7 -20 27 -28 43 -18 35 -28 50 -52 73 -10 9 -18 20 -18 25 0 12 -66 77 -79
77 -6 0 -11 4 -11 9 0 5 -13 12 -30 16 -16 4 -30 10 -30 15 0 5 -13 11 -30 15
-16 4 -30 10 -30 15 0 5 -13 11 -30 15 -16 4 -30 10 -30 15 0 5 -13 11 -30 15
-16 4 -30 11 -30 16 0 5 -7 9 -15 9 -8 0 -15 4 -15 9 0 5 -18 11 -40 15 -22 3
-40 10 -40 16 0 5 -16 12 -35 16 -19 3 -35 10 -35 15 0 4 -17 11 -37 15 -21 4
-44 13 -51 21 -7 7 -24 13 -38 13 -13 0 -24 4 -24 10 0 5 -16 12 -35 16 -19 3
-35 10 -35 14 0 5 -13 11 -30 15 -16 4 -30 10 -30 15 0 4 -18 10 -40 14 -22 3
-40 10 -40 15 0 5 -13 12 -30 16 -16 4 -30 10 -30 15 0 4 -16 11 -35 14 -19 4
-35 11 -35 16 0 6 -11 10 -25 10 -14 0 -25 4 -25 9 0 5 -13 12 -30 16 -16 4
-30 10 -30 15 0 4 -16 11 -35 14 -19 4 -35 11 -35 15 0 5 -18 11 -40 15 -22 3
-40 10 -40 15 0 5 -16 12 -35 15 -19 4 -35 11 -35 16 0 5 -20 12 -45 16 -25 3
-45 10 -45 15 0 4 -16 11 -35 15 -19 3 -35 10 -35 14 0 4 -18 10 -40 14 -22 3
-40 10 -40 16 0 5 -20 12 -45 16 -25 3 -45 10 -45 15 0 4 -16 11 -35 15 -19 3
-35 10 -35 15 0 5 -11 9 -25 9 -14 0 -25 4 -25 9 0 5 -16 12 -35 15 -19 4 -35
11 -35 15 0 5 -20 12 -45 15 -25 4 -45 11 -45 16 0 5 -22 12 -50 16 -27 4 -50
10 -50 15 0 5 -13 9 -30 9 -24 0 -28 3 -23 18 4 9 13 23 20 30 7 7 13 20 13
28 0 8 5 14 10 14 6 0 10 7 10 15 0 9 7 18 15 21 8 4 15 15 15 25 0 11 7 22
15 25 8 4 15 12 15 19 0 8 6 20 13 27 6 7 19 27 27 43 8 17 21 36 28 43 6 7
12 19 12 27 0 7 7 15 15 19 8 3 15 12 15 21 0 8 4 15 10 15 5 0 12 11 16 25 3
14 10 25 14 25 4 0 11 11 14 25 4 14 11 25 16 25 6 0 10 7 10 15 0 9 6 18 14
21 8 3 18 19 21 35 4 16 11 29 16 29 5 0 11 11 15 25 3 14 10 25 15 25 5 0 9
7 9 15 0 9 6 18 14 21 8 3 17 16 20 30 4 13 10 24 15 24 5 0 12 14 16 30 4 17
10 30 15 30 5 0 11 14 15 30 4 17 11 30 16 30 5 0 11 11 15 25 3 14 10 25 14
25 5 0 11 14 15 30 4 17 11 30 16 30 5 0 12 18 15 40 4 22 10 40 15 40 4 0 11
16 15 35 3 19 10 35 14 35 5 0 11 14 15 30 4 17 10 30 15 30 4 0 10 18 14 40
3 22 10 40 15 40 5 0 12 14 16 30 4 17 10 30 15 30 4 0 10 18 14 40 3 22 10
40 16 40 5 0 12 20 16 45 3 25 10 45 15 45 4 0 11 20 15 45 3 25 10 45 15 45
5 0 9 18 9 40 0 29 -4 40 -15 40 -8 0 -15 -7 -15 -15z"/>
<path d="M5628 13114 c-10 -3 -18 -12 -18 -20 0 -8 -4 -14 -10 -14 -14 0 -50
-38 -50 -53 0 -7 -13 -24 -29 -38 -15 -14 -31 -34 -35 -46 -4 -12 -13 -24 -21
-27 -8 -3 -15 -12 -15 -21 0 -8 -4 -15 -10 -15 -5 0 -12 -11 -16 -24 -3 -14
-12 -27 -20 -30 -8 -3 -14 -12 -14 -21 0 -8 -4 -15 -10 -15 -5 0 -12 -16 -16
-35 -3 -19 -10 -35 -15 -35 -5 0 -9 -7 -9 -15 0 -9 -6 -18 -14 -21 -8 -3 -18
-19 -21 -35 -4 -16 -10 -29 -15 -29 -5 0 -11 -13 -15 -30 -4 -16 -11 -30 -16
-30 -5 0 -12 -18 -15 -40 -4 -22 -10 -40 -14 -40 -4 0 -11 -11 -14 -25 -4 -14
-10 -25 -15 -25 -5 0 -12 -13 -16 -30 -4 -16 -10 -30 -15 -30 -5 0 -11 -13
-15 -29 -3 -16 -13 -32 -21 -35 -8 -3 -14 -12 -14 -21 0 -8 -4 -15 -9 -15 -5
0 -12 -13 -16 -30 -4 -16 -10 -30 -14 -30 -4 0 -13 -22 -20 -50 -7 -27 -17
-50 -21 -50 -5 0 -11 -13 -15 -30 -4 -16 -11 -30 -15 -30 -5 0 -12 -16 -16
-35 -3 -19 -10 -35 -15 -35 -5 0 -12 -18 -15 -40 -4 -22 -10 -40 -15 -40 -5 0
-12 -18 -15 -40 -4 -22 -10 -40 -14 -40 -5 0 -11 -13 -15 -30 -4 -16 -11 -30
-16 -30 -5 0 -9 -16 -9 -35 0 -19 4 -35 10 -35 5 0 12 -11 16 -24 3 -14 12
-27 20 -30 8 -3 14 -12 14 -21 0 -9 11 -26 25 -39 14 -13 25 -27 25 -31 0 -4
18 -25 40 -47 22 -22 40 -45 40 -50 0 -5 20 -31 45 -56 72 -75 75 -78 75 -86
0 -4 53 -61 118 -127 64 -65 147 -150 185 -189 37 -38 72 -70 77 -70 5 0 38
-29 73 -65 36 -36 69 -65 73 -65 5 0 18 -11 28 -25 35 -47 63 -73 84 -80 12
-3 22 -11 22 -16 0 -5 8 -13 18 -16 9 -4 26 -16 38 -29 11 -12 31 -25 42 -29
12 -3 22 -11 22 -16 0 -5 7 -9 15 -9 9 0 18 -6 21 -14 3 -8 16 -17 30 -20 13
-4 24 -11 24 -16 0 -6 6 -10 14 -10 8 0 16 -7 20 -15 3 -8 12 -15 21 -15 8 0
15 -4 15 -9 0 -5 14 -12 30 -16 17 -4 30 -11 30 -16 0 -5 20 -9 45 -9 25 0 45
4 45 9 0 4 36 12 80 15 44 4 80 11 80 16 0 5 32 12 70 16 39 3 70 11 70 15 0
5 16 9 35 9 19 0 35 4 35 9 0 4 32 12 70 15 39 4 70 11 70 16 0 4 27 11 60 15
33 4 60 11 60 16 0 4 23 11 50 15 28 4 50 10 50 14 0 4 23 10 50 14 28 4 50
11 50 16 0 5 25 12 55 15 30 4 55 11 55 16 0 4 20 11 45 15 25 3 45 10 45 15
0 4 20 11 45 15 25 3 45 10 45 15 0 4 23 11 50 15 28 4 50 10 50 15 0 5 11 9
25 9 14 0 25 4 25 9 0 5 23 11 50 15 28 4 50 11 50 16 0 5 25 12 55 15 30 4
55 11 55 15 0 5 18 11 40 15 22 4 40 10 40 15 0 4 20 11 45 14 25 4 45 11 45
15 0 5 20 12 45 15 25 4 45 11 45 15 0 5 20 12 45 15 25 4 45 11 45 15 0 5 20
12 45 15 25 4 45 11 45 15 0 5 20 12 45 15 25 4 45 11 45 15 0 5 20 12 45 15
25 4 45 11 45 17 0 5 11 9 25 9 14 0 25 4 25 10 0 5 23 12 50 16 28 4 50 10
50 15 0 4 20 11 45 15 25 3 45 10 45 15 0 4 20 11 45 15 25 3 45 10 45 14 0 4
23 10 50 14 28 4 50 11 50 16 0 5 25 12 55 15 30 4 55 11 55 16 0 4 20 11 45
15 25 3 45 10 45 14 0 4 16 11 35 14 19 4 35 11 35 16 0 6 11 10 24 10 14 0
31 6 38 14 8 7 33 17 56 21 23 4 42 11 42 16 0 5 11 9 25 9 14 0 25 4 25 9 0
6 20 13 45 17 25 3 45 10 45 15 0 4 23 11 50 15 28 4 50 10 50 15 0 5 18 12
40 15 22 4 40 10 40 15 0 4 20 11 45 15 25 3 45 10 45 14 0 4 16 11 35 14 19
4 35 11 35 15 0 5 20 12 45 15 25 4 45 11 45 15 0 5 16 12 35 15 19 4 35 11
35 16 0 6 7 10 15 10 8 0 15 7 15 15 0 8 -9 15 -20 15 -11 0 -20 -4 -20 -9 0
-4 -36 -12 -80 -15 -44 -4 -80 -11 -80 -15 0 -5 -31 -12 -70 -15 -38 -4 -70
-11 -70 -15 0 -5 -22 -11 -50 -15 -27 -4 -50 -11 -50 -15 0 -5 -27 -12 -60
-16 -33 -4 -60 -11 -60 -15 0 -5 -25 -12 -55 -15 -30 -4 -55 -11 -55 -15 0 -4
-22 -10 -50 -14 -27 -4 -50 -11 -50 -15 0 -5 -29 -12 -65 -16 -36 -3 -65 -10
-65 -15 0 -4 -27 -11 -60 -15 -33 -4 -60 -11 -60 -16 0 -5 -13 -9 -30 -9 -16
0 -30 -4 -30 -9 0 -5 -27 -12 -60 -16 -33 -4 -60 -11 -60 -15 0 -4 -25 -11
-55 -15 -30 -3 -55 -10 -55 -14 0 -5 -22 -11 -50 -15 -27 -4 -50 -10 -50 -15
0 -5 -22 -11 -50 -15 -27 -4 -50 -11 -50 -16 0 -5 -25 -12 -55 -15 -30 -4 -55
-11 -55 -16 0 -4 -20 -11 -45 -15 -25 -3 -45 -10 -45 -15 0 -4 -20 -11 -45
-15 -25 -3 -45 -10 -45 -15 0 -4 -22 -11 -50 -15 -27 -4 -50 -10 -50 -14 0 -4
-20 -11 -45 -14 -25 -4 -45 -11 -45 -17 0 -5 -13 -9 -30 -9 -16 0 -30 -4 -30
-9 0 -5 -22 -12 -50 -16 -27 -4 -50 -10 -50 -15 0 -4 -20 -11 -45 -14 -25 -4
-45 -11 -45 -15 0 -5 -25 -12 -55 -16 -30 -3 -55 -10 -55 -14 0 -5 -22 -11
-50 -15 -27 -4 -50 -11 -50 -15 0 -5 -25 -12 -55 -16 -30 -3 -55 -10 -55 -14
0 -5 -22 -11 -50 -15 -27 -4 -50 -11 -50 -15 0 -5 -20 -12 -45 -15 -25 -4 -45
-11 -45 -15 0 -5 -22 -11 -50 -15 -27 -4 -50 -11 -50 -16 0 -5 -25 -12 -55
-15 -30 -4 -55 -11 -55 -16 0 -5 -9 -9 -20 -9 -11 0 -20 -4 -20 -9 0 -5 -20
-12 -45 -15 -25 -4 -45 -11 -45 -15 0 -5 -25 -12 -55 -16 -30 -3 -55 -10 -55
-15 0 -5 -20 -12 -45 -16 -25 -3 -45 -10 -45 -15 0 -4 -20 -11 -45 -15 -25 -3
-45 -10 -45 -15 0 -4 -20 -11 -45 -15 -25 -3 -45 -10 -45 -14 0 -5 -18 -11
-40 -15 -22 -4 -40 -11 -40 -15 0 -5 -13 -11 -30 -15 -16 -4 -30 -10 -30 -15
0 -5 -13 -11 -30 -15 -16 -4 -30 -11 -30 -16 0 -5 -7 -9 -15 -9 -8 0 -15 5
-15 10 0 6 -6 10 -14 10 -8 0 -27 13 -43 28 -15 16 -36 31 -45 35 -10 3 -18
11 -18 17 0 5 -7 10 -15 10 -8 0 -23 9 -32 20 -10 11 -21 20 -26 20 -5 0 -14
6 -21 13 -8 6 -24 19 -36 27 -59 40 -128 102 -265 240 -294 294 -535 542 -535
550 0 5 -16 24 -35 43 -19 19 -35 37 -35 41 0 7 -12 23 -42 57 -10 10 -18 23
-18 28 0 5 -13 23 -30 39 -16 17 -30 35 -30 41 0 5 -8 14 -17 19 -15 9 -14 12
10 35 15 13 27 28 27 32 0 4 16 23 35 42 19 19 35 41 35 49 0 8 9 22 20 31 11
10 20 22 20 27 0 5 11 19 24 31 13 12 27 31 30 43 4 11 13 23 21 26 8 3 15 12
15 21 0 8 4 15 9 15 5 0 13 10 16 22 4 11 17 31 30 42 12 12 25 31 29 44 4 12
12 22 17 22 5 0 9 7 9 15 0 9 6 18 14 21 8 3 17 16 20 30 4 13 11 24 16 24 6
0 10 7 10 15 0 9 7 18 15 21 8 3 17 15 21 26 3 12 16 31 29 42 12 12 25 31 29
44 4 12 12 22 17 22 5 0 9 7 9 15 0 9 6 18 14 21 8 3 17 16 20 30 4 13 11 24
16 24 6 0 10 7 10 15 0 9 6 18 14 21 8 3 17 16 20 30 4 13 11 24 16 24 6 0 10
7 10 15 0 9 6 18 14 21 8 3 17 20 20 39 4 18 13 36 21 39 8 3 15 12 15 21 0 8
4 15 9 15 5 0 12 14 16 30 4 17 10 30 15 30 4 0 11 11 14 25 5 21 12 25 41 25
19 0 35 -4 35 -9 0 -5 38 -12 85 -16 47 -4 85 -11 85 -15 0 -4 43 -11 95 -15
52 -4 95 -10 95 -15 0 -4 51 -11 113 -15 61 -4 114 -11 117 -16 3 -4 47 -11
98 -15 50 -4 92 -10 92 -15 0 -4 50 -11 110 -14 61 -4 110 -11 110 -15 0 -5
59 -11 130 -15 72 -4 130 -11 130 -16 0 -5 25 -9 55 -9 30 0 55 -4 55 -9 0 -5
54 -12 120 -16 66 -4 120 -11 120 -15 0 -5 59 -11 130 -15 72 -4 130 -11 130
-15 0 -5 63 -11 140 -15 77 -4 140 -11 140 -15 0 -4 63 -11 140 -15 77 -4 140
-10 140 -15 0 -4 88 -11 195 -15 107 -4 195 -11 195 -15 0 -4 89 -10 197 -14
109 -4 200 -11 203 -16 3 -4 67 -11 143 -15 75 -4 137 -10 137 -15 0 -4 51
-10 112 -14 116 -8 128 -12 128 -53 0 -13 4 -23 9 -23 5 0 12 -13 16 -30 4
-16 11 -30 15 -30 5 0 12 -16 16 -35 3 -19 10 -35 14 -35 5 0 11 -13 15 -30 4
-16 11 -30 16 -30 5 0 9 -6 9 -14 0 -8 6 -21 14 -28 7 -8 17 -24 20 -36 4 -12
12 -22 17 -22 5 0 9 -7 9 -15 0 -9 6 -18 14 -21 8 -3 18 -19 21 -35 4 -16 10
-29 15 -29 5 0 11 -13 15 -30 4 -16 11 -30 15 -30 5 0 15 -18 21 -40 7 -22 15
-40 19 -40 5 0 11 -11 14 -25 4 -14 10 -25 15 -25 5 0 12 -13 16 -30 4 -16 10
-30 15 -30 5 0 11 -13 15 -30 4 -16 11 -30 16 -30 5 0 9 -7 9 -15 0 -8 7 -15
15 -15 11 0 15 12 15 45 0 25 -4 45 -9 45 -5 0 -12 25 -16 55 -3 30 -10 55
-15 55 -4 0 -11 20 -14 45 -4 25 -11 45 -16 45 -6 0 -13 18 -16 40 -4 22 -10
40 -14 40 -5 0 -11 14 -15 30 -4 17 -11 30 -15 30 -5 0 -14 27 -21 60 -6 33
-15 60 -19 60 -4 0 -10 18 -14 40 -3 22 -10 40 -16 40 -5 0 -12 20 -16 45 -3
25 -10 45 -14 45 -4 0 -11 12 -15 27 -3 15 -17 37 -31 50 -13 12 -24 26 -24
31 0 5 -18 28 -40 51 -39 40 -43 42 -118 48 -42 3 -79 10 -82 14 -3 4 -51 11
-108 15 -56 4 -102 10 -102 14 0 4 -49 11 -110 15 -60 4 -110 11 -110 15 0 5
-43 11 -95 15 -52 4 -95 11 -95 16 0 5 -20 9 -45 9 -25 0 -45 4 -45 9 0 5 -40
12 -90 16 -49 4 -90 11 -90 15 0 4 -40 11 -90 15 -49 4 -90 11 -90 15 0 4 -54
11 -120 15 -66 4 -120 11 -120 15 0 5 -49 12 -110 15 -60 4 -110 11 -110 15 0
4 -49 11 -110 15 -60 4 -110 11 -110 15 0 4 -61 11 -135 15 -74 4 -135 11
-135 15 0 4 -61 11 -135 15 -74 4 -135 11 -135 15 0 4 -56 11 -125 15 -69 4
-125 11 -125 15 0 4 -67 11 -150 15 -82 4 -150 11 -150 16 0 5 -42 9 -94 9
-52 0 -96 4 -98 9 -1 6 -76 13 -165 17 -90 4 -163 10 -163 14 0 4 -66 10 -147
14 -90 4 -150 11 -154 18 -8 12 -102 20 -131 12z"/>
<path d="M10990 11830 c0 -5 -7 -10 -15 -10 -8 0 -23 -9 -32 -20 -10 -11 -21
-20 -26 -20 -13 0 -167 -156 -167 -169 0 -6 -18 -28 -40 -50 -22 -21 -40 -43
-40 -48 0 -10 -36 -43 -48 -43 -11 0 -52 -46 -52 -59 0 -6 -4 -11 -9 -11 -5 0
-11 -18 -15 -40 -3 -22 -10 -40 -15 -40 -5 0 -12 -20 -15 -45 -4 -25 -11 -45
-15 -45 -5 0 -14 -34 -20 -75 -7 -41 -16 -75 -21 -75 -4 0 -11 -22 -15 -50 -4
-27 -10 -50 -15 -50 -4 0 -10 -22 -14 -50 -4 -27 -11 -50 -15 -50 -5 0 -12
-20 -15 -45 -4 -25 -11 -45 -16 -45 -5 0 -12 -25 -15 -55 -4 -30 -11 -55 -16
-55 -4 0 -11 -31 -15 -70 -3 -38 -10 -70 -14 -70 -4 0 -10 -26 -13 -57 -3 -32
-11 -59 -16 -61 -5 -2 -13 -35 -17 -73 -4 -38 -11 -69 -15 -69 -5 0 -9 -24 -9
-52 0 -29 -5 -71 -10 -93 -13 -61 -39 -268 -46 -380 -10 -155 8 -357 30 -335
4 5 14 90 36 305 9 88 18 125 30 125 5 0 12 25 15 55 4 30 11 55 16 55 4 0 11
27 15 60 4 33 10 60 14 60 4 0 11 32 14 70 4 39 11 70 16 70 4 0 11 24 15 53
4 28 12 55 17 58 5 3 12 25 15 48 3 22 9 41 14 41 4 0 11 20 15 45 3 25 10 45
14 45 4 0 13 38 20 85 7 47 16 85 20 85 4 0 11 27 15 60 4 33 11 60 15 60 4 0
11 27 15 60 4 33 11 60 15 60 4 0 11 27 15 60 4 33 10 60 15 60 4 0 11 29 15
65 3 36 10 65 15 65 5 0 12 20 16 45 3 25 10 45 14 45 4 0 10 19 13 41 3 23
10 45 15 48 6 3 14 19 17 34 4 15 11 27 15 27 5 0 12 10 16 22 4 12 20 33 35
47 16 14 29 31 29 38 0 7 4 13 9 13 5 0 13 9 16 21 4 11 20 33 36 50 16 16 29
34 29 39 0 5 34 43 76 84 60 60 74 79 69 95 -6 21 -35 30 -35 11z"/>
<path d="M11950 11544 c0 -9 11 -27 25 -40 13 -12 27 -34 31 -48 3 -14 10 -26
14 -26 5 0 11 -13 15 -30 4 -16 10 -30 15 -30 4 0 11 -18 15 -40 4 -22 11 -40
15 -40 5 0 12 -25 15 -55 4 -30 11 -55 15 -55 4 0 11 -27 15 -60 4 -33 11 -60
15 -60 4 0 11 -20 14 -45 4 -25 11 -45 16 -45 6 0 13 -18 16 -40 4 -22 10 -40
15 -40 4 0 11 -20 15 -45 3 -25 10 -45 14 -45 4 0 10 -18 14 -40 3 -22 11 -40
16 -40 5 0 12 -22 16 -50 4 -27 10 -50 15 -50 5 0 9 -11 9 -25 0 -14 7 -42 15
-61 8 -19 17 -57 21 -85 4 -27 10 -49 14 -49 4 0 12 -37 18 -82 20 -151 34
-233 42 -243 4 -5 11 -44 15 -85 4 -41 11 -81 16 -90 4 -8 11 -32 14 -52 3
-21 10 -38 15 -38 6 0 13 -18 16 -40 16 -97 24 -22 24 215 0 140 -4 255 -9
255 -5 0 -12 41 -15 90 -4 50 -11 90 -16 90 -4 0 -11 27 -15 60 -4 33 -11 60
-15 60 -4 0 -11 20 -14 45 -4 25 -11 45 -16 45 -5 0 -12 25 -15 55 -4 30 -11
55 -15 55 -4 0 -11 25 -15 55 -3 30 -10 55 -14 55 -5 0 -11 23 -15 50 -4 28
-11 50 -15 50 -5 0 -12 20 -15 45 -4 25 -11 45 -16 45 -4 0 -11 23 -15 50 -4
28 -11 50 -15 50 -5 0 -12 20 -16 45 -3 25 -10 45 -15 45 -4 0 -11 20 -15 45
-3 25 -10 45 -15 45 -5 0 -9 6 -9 14 0 18 -193 213 -220 221 -15 5 -20 2 -20
-11z"/>
<path d="M10928 9463 c-43 -2 -78 -8 -78 -12 0 -5 -43 -12 -95 -16 -52 -4 -95
-10 -95 -15 0 -4 -39 -11 -87 -15 -49 -4 -91 -12 -95 -19 -6 -8 -11 -7 -18 4
-6 10 -10 11 -10 3 0 -7 -9 -13 -20 -13 -11 0 -20 -4 -20 -9 0 -4 -25 -11 -57
-14 -31 -3 -59 -10 -62 -15 -3 -5 -25 -13 -48 -17 -24 -4 -43 -11 -43 -15 0
-5 -13 -11 -30 -15 -16 -4 -30 -10 -30 -15 0 -4 -11 -11 -25 -14 -14 -4 -25
-11 -25 -16 0 -6 -7 -10 -15 -10 -9 0 -18 -7 -21 -15 -4 -8 -12 -15 -19 -15
-17 0 -61 -43 -70 -68 -3 -12 -10 -22 -15 -22 -5 0 -11 -13 -15 -30 -4 -16
-10 -30 -15 -30 -5 0 -11 -13 -15 -30 -4 -16 -11 -30 -16 -30 -5 0 -11 -11
-15 -25 -3 -14 -10 -25 -14 -25 -5 0 -11 -13 -15 -30 -4 -16 -10 -30 -14 -30
-5 0 -14 -20 -21 -45 -7 -25 -16 -45 -21 -45 -4 0 -10 -13 -14 -30 -4 -16 -10
-30 -15 -30 -5 0 -11 -13 -15 -30 -4 -16 -10 -30 -15 -30 -4 0 -10 -18 -14
-40 -3 -22 -10 -40 -16 -40 -5 0 -12 -20 -16 -45 -3 -25 -10 -45 -14 -45 -4 0
-11 -25 -15 -55 -3 -30 -10 -55 -14 -55 -5 0 -11 -22 -15 -50 -4 -27 -11 -50
-15 -50 -5 0 -12 -22 -16 -50 -4 -27 -11 -50 -16 -50 -4 0 -11 -22 -15 -50 -4
-27 -10 -50 -14 -50 -4 0 -11 -20 -14 -45 -4 -25 -11 -45 -16 -45 -5 0 -12
-25 -15 -55 -4 -30 -11 -55 -15 -55 -5 0 -11 -24 -15 -52 -4 -29 -11 -55 -16
-58 -5 -3 -12 -45 -15 -93 -4 -48 -11 -87 -15 -87 -5 0 -9 -11 -9 -25 0 -15
-7 -28 -17 -32 -10 -4 -24 -13 -31 -20 -7 -7 -20 -13 -28 -13 -8 0 -14 -4 -14
-10 0 -5 -7 -10 -15 -10 -9 0 -18 -6 -21 -14 -3 -8 -19 -18 -35 -21 -16 -4
-29 -11 -29 -16 0 -5 -11 -11 -25 -15 -13 -3 -27 -14 -30 -24 -3 -10 -19 -21
-35 -25 -15 -3 -31 -13 -34 -21 -3 -8 -11 -14 -17 -14 -6 0 -22 -11 -34 -24
-12 -13 -32 -27 -43 -31 -12 -3 -22 -11 -22 -16 0 -5 -7 -9 -15 -9 -9 0 -18
-7 -21 -15 -4 -8 -12 -15 -20 -15 -8 0 -22 -9 -31 -20 -10 -11 -23 -20 -30
-20 -7 0 -13 -4 -13 -10 0 -5 -11 -12 -24 -16 -14 -3 -27 -12 -30 -20 -3 -8
-11 -14 -18 -14 -8 0 -20 -9 -28 -20 -8 -11 -20 -20 -28 -20 -7 0 -15 -6 -18
-14 -3 -8 -16 -17 -30 -20 -13 -4 -24 -11 -24 -16 0 -6 -7 -10 -15 -10 -9 0
-18 -7 -21 -15 -4 -8 -12 -15 -20 -15 -8 0 -22 -9 -31 -20 -10 -11 -23 -20
-30 -20 -7 0 -13 -4 -13 -10 0 -5 -11 -12 -24 -16 -14 -3 -27 -12 -30 -20 -3
-8 -10 -14 -16 -14 -6 0 -21 -10 -33 -23 -12 -13 -30 -26 -39 -30 -10 -3 -18
-11 -18 -17 0 -5 -5 -10 -11 -10 -7 0 -22 -11 -34 -24 -12 -13 -31 -27 -43
-30 -11 -4 -23 -13 -26 -21 -3 -8 -11 -15 -17 -15 -6 0 -22 -11 -35 -25 -13
-14 -27 -25 -33 -25 -5 0 -22 -13 -38 -28 -15 -16 -36 -31 -45 -35 -10 -3 -18
-11 -18 -16 0 -5 -10 -13 -22 -16 -22 -8 -68 -52 -68 -66 0 -5 -7 -9 -15 -9
-8 0 -29 -16 -48 -35 -19 -19 -37 -35 -42 -35 -4 0 -32 -25 -61 -55 -30 -30
-57 -55 -60 -55 -3 0 -65 -61 -138 -135 -73 -74 -136 -135 -140 -135 -12 0
-96 -87 -96 -99 0 -6 -7 -11 -15 -11 -8 0 -15 -6 -15 -14 0 -8 -49 -64 -110
-124 -60 -61 -110 -115 -110 -121 0 -6 -22 -34 -50 -62 -27 -28 -50 -55 -50
-60 0 -5 -18 -26 -40 -48 -22 -21 -40 -43 -40 -48 0 -5 -13 -20 -30 -33 -16
-14 -29 -32 -30 -40 0 -9 -9 -23 -20 -33 -11 -9 -20 -23 -20 -31 0 -8 -7 -16
-15 -20 -8 -3 -15 -12 -15 -21 0 -8 -4 -15 -10 -15 -5 0 -12 -11 -16 -25 -3
-14 -10 -25 -15 -25 -5 0 -9 -7 -9 -15 0 -9 -6 -18 -14 -21 -8 -3 -18 -20 -22
-37 -3 -18 -11 -35 -17 -39 -6 -4 -12 -63 -15 -145 -2 -76 -7 -140 -11 -143
-5 -3 -12 -88 -16 -190 -4 -122 -11 -187 -18 -192 -17 -10 -17 -1605 -1 -1616
7 -4 14 -71 19 -177 4 -93 11 -172 15 -175 4 -3 11 -62 15 -132 4 -71 11 -128
15 -128 4 0 11 -58 15 -130 4 -72 11 -130 15 -130 4 0 10 -46 14 -102 4 -57
11 -105 15 -108 5 -3 12 -38 16 -78 4 -39 10 -72 15 -72 4 0 11 -31 14 -70 4
-38 11 -70 15 -70 5 0 12 -25 16 -55 3 -30 10 -55 15 -55 5 0 12 -23 16 -50 4
-28 10 -50 14 -50 4 0 11 -25 15 -55 3 -30 10 -55 15 -55 5 0 12 -25 15 -55 4
-30 11 -55 16 -55 4 0 11 -20 15 -45 3 -25 10 -45 14 -45 4 0 11 -20 14 -45 4
-25 11 -45 15 -45 5 0 11 -18 15 -40 3 -22 10 -40 15 -40 5 0 12 -16 15 -35 4
-19 11 -35 16 -35 4 0 14 -23 21 -50 7 -28 16 -50 20 -50 4 0 10 -14 14 -30 4
-17 13 -30 21 -30 12 0 13 8 8 38 -4 20 -10 39 -14 42 -4 3 -11 24 -15 47 -4
24 -10 43 -15 43 -4 0 -13 34 -19 75 -7 41 -16 75 -21 75 -4 0 -11 29 -15 65
-3 36 -10 65 -15 65 -4 0 -11 27 -15 60 -4 33 -10 60 -15 60 -4 0 -10 31 -14
69 -4 38 -11 71 -16 73 -5 2 -12 36 -16 76 -4 39 -10 72 -14 72 -4 0 -11 47
-15 105 -4 58 -11 105 -15 105 -4 0 -11 52 -15 115 -4 63 -11 115 -15 115 -4
0 -11 56 -15 125 -4 69 -11 125 -15 125 -5 0 -11 58 -15 130 -4 71 -11 130
-15 130 -4 0 -11 71 -15 157 -4 87 -11 160 -15 163 -5 3 -11 97 -15 210 -5
119 -12 208 -18 211 -15 10 -16 1147 -1 1157 8 4 14 72 19 190 4 100 11 182
15 182 4 0 11 63 15 140 4 77 11 140 16 140 5 0 9 29 9 65 0 37 -4 65 -10 65
-5 0 -10 20 -10 45 0 25 5 45 10 45 6 0 10 9 10 20 0 11 7 23 15 26 8 3 17 15
21 27 4 12 20 32 35 46 16 14 29 29 29 34 0 5 14 22 30 39 17 16 30 34 30 39
0 5 18 27 40 49 22 22 40 45 40 50 0 6 25 36 55 66 30 31 55 60 55 65 0 10
334 349 344 349 5 0 36 29 71 65 34 36 66 65 70 65 5 0 28 20 52 45 23 25 46
45 51 45 4 0 19 13 32 30 14 16 30 29 37 30 14 0 73 58 73 71 0 5 7 9 15 9 8
0 23 9 32 20 10 11 22 20 27 20 5 0 19 11 31 24 12 13 31 27 43 30 11 4 23 13
26 21 3 8 11 15 17 15 6 0 22 11 34 24 12 13 31 27 43 30 11 4 23 13 26 21 3
8 11 15 18 15 8 0 20 9 28 20 8 11 19 20 25 20 6 0 22 13 36 29 14 15 35 31
47 35 12 4 22 12 22 17 0 5 5 9 12 9 6 0 18 7 27 15 67 62 82 74 100 80 12 3
21 11 21 16 0 5 6 9 13 9 7 0 20 9 30 20 9 11 23 20 31 20 8 0 18 9 21 20 3
11 13 20 21 20 8 0 22 9 31 20 10 11 22 20 27 20 5 0 19 11 32 25 13 14 27 25
33 25 5 0 23 14 39 30 17 17 34 30 39 30 5 0 20 13 33 30 14 16 30 29 37 30
14 0 73 58 73 71 0 5 6 9 14 9 8 0 28 14 44 30 17 17 34 30 37 30 4 0 26 20
49 45 24 25 47 45 51 45 5 0 51 44 104 98 55 57 107 102 123 105 19 5 28 15
33 37 4 16 10 30 15 30 4 0 10 18 14 40 3 22 10 40 15 40 5 0 12 14 16 30 4
17 11 30 16 30 5 0 12 18 15 40 4 22 10 40 15 40 4 0 11 16 15 35 3 19 10 35
15 35 5 0 12 18 15 40 4 22 10 40 15 40 5 0 12 18 15 40 4 22 10 40 15 40 4 0
11 16 15 35 3 19 10 35 14 35 5 0 11 14 15 30 4 17 10 30 15 30 5 0 11 14 15
30 4 17 11 30 15 30 5 0 12 16 16 35 3 19 10 35 14 35 4 0 13 20 20 45 7 25
16 45 21 45 4 0 10 13 14 29 3 16 13 32 21 35 8 3 14 12 14 21 0 8 4 15 10 15
5 0 13 18 16 40 4 22 10 40 14 40 5 0 11 14 15 30 4 17 10 30 15 30 5 0 11 14
15 30 4 17 10 30 15 30 5 0 11 14 15 30 4 17 11 30 16 30 5 0 12 18 15 40 4
22 10 40 14 40 4 0 11 11 14 25 4 14 10 25 15 25 5 0 12 14 16 30 4 17 10 30
15 30 5 0 11 13 15 29 3 16 13 32 21 35 8 3 14 12 14 21 0 8 4 15 9 15 5 0 13
9 16 21 8 24 40 59 55 59 6 0 10 4 10 9 0 5 34 12 75 16 41 4 75 10 75 15 0 4
27 11 60 15 33 4 60 10 60 15 0 4 29 11 65 15 36 3 65 10 65 15 0 4 37 11 83
15 45 4 84 11 87 15 3 5 70 12 150 16 80 4 148 11 151 17 9 13 730 11 738 -2
3 -5 86 -13 184 -17 97 -4 177 -11 177 -15 0 -5 54 -9 120 -9 100 0 120 3 120
15 0 9 -9 15 -24 15 -13 0 -26 5 -28 11 -2 5 -22 13 -46 16 -23 3 -42 9 -42
14 0 5 -22 11 -50 15 -27 4 -50 10 -50 14 0 4 -31 11 -70 14 -38 4 -70 11 -70
16 0 5 -29 12 -65 15 -36 4 -65 11 -65 16 0 5 -13 9 -30 9 -16 0 -30 4 -30 9
0 5 -28 12 -62 16 -35 4 -65 11 -68 16 -3 4 -48 11 -100 15 -52 4 -98 11 -101
17 -7 10 -478 18 -621 10z"/>
</g>
</svg>
